<svg id="Capa_1" enable-background="new 0 0 512.005 512.005" height="512" viewBox="0 0 512.005 512.005" width="512" xmlns="http://www.w3.org/2000/svg" xmlns:xlink="http://www.w3.org/1999/xlink"><linearGradient id="SVGID_1_" gradientUnits="userSpaceOnUse" x1="268.055" x2="268.055" y1="512.003" y2="7.604"><stop offset="0" stop-color="#ffe59a"/><stop offset="1" stop-color="#ffffd5"/></linearGradient><linearGradient id="SVGID_2_" gradientUnits="userSpaceOnUse" x1="255.052" x2="255.052" y1="509.803" y2=".003"><stop offset="0" stop-color="#fd5900"/><stop offset="1" stop-color="#ffde00"/></linearGradient><g><g><g><path d="m512.005 256.003-1.901-21.899-86.1-146.1-225-80.4-32.999 9.598 62.229 83.359-129.729-44.658c-27.262 19.922-57.231 54.599-74.401 95.1l21.601 200.4 188.399 158.101 21.901 2.5 20.999-2.199-70.04-97.916 154.041 76.315c14.099-6.299 27.9-14.099 40.8-23.099l-45-66.301 68.699 47.701c11.277-9.545 22.127-21.296 30.901-32.701l-32.401-159.9 86.1 22.8z" fill="url(#SVGID_1_)"/></g></g><g><g><path d="m177.704 332.502c-36.034-16.086-67.879-48.605-82.799-82.8-12.601-28.799-28.5-56.398-50.7-78.6l-20.101-20.1c-15.403 33.843-24.356 70.432-24.099 107 .909 129.335 102.09 240.497 234.099 251.5l-158.399-158.099c-5.7-6-5.7-15.3 0-21.299 6-6 15.601-6 21.299 0l180 179.7c28.801-2.4 57.301-9.601 84.001-21.601l-105-105.3c-22.199-22.201-49.5-37.799-78.301-50.401zm195-214.498c6-6 15.601-6 21.301 0l116.1 116.1c-11.459-134.14-124.597-234.101-254.1-234.101-19.501 0-38.401 3.1-57.001 7.601l195 195.298c6 5.7 6 15.3 0 21-6.427 6.431-15.732 5.568-21.301 0l-206.698-206.7c-24.001 9.302-46.8 22.202-67.5 38.701l30.599 30.601c22.202 22.2 49.501 37.799 78.302 50.4 33.447 14.932 67.666 47.488 82.799 82.798 12.601 28.801 28.5 56.102 50.7 78.302l115.501 115.799c31.199-39.3 49.799-86.701 53.699-137.1l-137.4-137.4c-5.701-6-5.701-15.6-.001-21.299zm-127.158 169.685c18.135-18.135 9.023-54.609-21.211-84.858-30.234-30.22-66.68-39.316-84.873-21.211-18.12 18.149-8.994 54.639 21.24 84.858 31.762 31.762 67.591 38.464 84.844 21.211zm21.259 21.114c-6 6-6 15.3 0 21.301l135 135c8.101-5.402 16.199-11.701 23.699-18.6l-137.399-137.701c-6-5.7-15.6-5.7-21.3 0z" fill="url(#SVGID_2_)"/></g></g></g></svg>