<svg id="Capa_1" enable-background="new 0 0 512.012 512.012" height="512" viewBox="0 0 512.012 512.012" width="512" xmlns="http://www.w3.org/2000/svg" xmlns:xlink="http://www.w3.org/1999/xlink"><linearGradient id="SVGID_1_" gradientUnits="userSpaceOnUse" x1="258.312" x2="258.312" y1="511.107" y2=".006"><stop offset="0" stop-color="#00b59c"/><stop offset="1" stop-color="#9cffac"/></linearGradient><linearGradient id="SVGID_2_" gradientUnits="userSpaceOnUse" x1="254.006" x2="254.006" y1="512.006" y2="2.207"><stop offset="0" stop-color="#c3ffe8"/><stop offset=".9973" stop-color="#f0fff4"/></linearGradient><g><g><g><path d="m512.012 256.307c0-13.5-1.901-26.701-4.001-39.6l-27.9-32.699 14.101-18.9c-34.581-92.775-128.073-165.102-238.2-165.102-7.2 0-14.101 1.601-21.301 2.201l-2.999 35.7-27.601-30.9c-12.9 2.1-25.199 5.7-37.5 10.499l13.907 97.69-47.507-82.39c-9 5.102-17.999 10.802-26.699 17.101l10.098 48.737-40.998-22.337c-10.8 10.799-20.4 22.2-28.5 34.5l-10.8 43.5-11.4-5.101c-9 19.5-15.601 40.201-19.2 61.201l34.301 94.078-35.2-9.778 11.999 48.3 261.301 168.1c10.201-.901 20.099-3.401 30-5.501l-5.392-29.088 43.193 18.289c11.4-4.201 22.5-9.3 33.3-15.3l-6-48 33.001 30.899c10.8-7.5 20.999-16.2 30.599-25.8l.3-.3 6.996-59.392 21.504 24.593c8.699-12 15.901-24.6 21.899-37.8l-4.036-81.083 23.837 18.982c2.697-14.699 4.898-29.999 4.898-45.299z" fill="url(#SVGID_1_)"/></g></g><g><g><path d="m166.611 17.506c-11.4 4.201-22.798 9.302-33.6 15.3 19.801 94.201 54.3 111 127.8 146.4l15.601 7.5c7.5 3.6 10.499 12.601 6.899 19.801-4.112 8.227-13.276 10.796-20.099 6.899l-15.3-7.2c-73.5-35.4-117.9-56.7-141.599-156.3-10.801 7.8-21 16.5-30.601 26.1l-.3.3c47.701 245.7 314.099 114 361.5 360 10.8-10.799 20.4-22.5 28.5-34.799-19.501-100.201-55.8-117.899-129-153.001l-15.601-7.5c-7.5-3.6-10.499-12.6-6.899-20.1s12.599-10.499 20.099-6.899l15.3 7.5c70.8 33.9 113.699 54.601 137.999 142.2 9.3-19.801 15.901-40.501 19.801-62.1-69.299-171.001-284.4-90.601-340.5-284.101zm-161.1 192.902c-2.938 16.077-5.721 32.353-5.499 48.599.163 11.947 2.565 23.878 4.6 35.701 20.4 22.2 47.699 35.4 86.4 54l15.599 7.5c7.5 3.6 10.501 12.6 6.901 20.1-3.657 8.227-13.976 10.231-19.801 6.899l-15.599-7.5c-23.101-11.1-43.5-20.999-61.501-32.699 35.808 102.048 134.982 168.999 239.401 168.999 7.2 0 14.7-.3 21.899-.899-21.599-48.9-54.901-65.801-111.301-93.1l-15.599-7.5c-7.5-3.6-10.501-12.6-6.901-19.801 3.6-7.5 12.601-10.799 20.101-7.2l15.298 7.5c60.901 29.401 102.902 49.501 128.401 114.6 12.9-2.699 25.499-6.299 37.8-10.799-55.797-193.501-271.798-113.102-340.199-284.4zm342.602-81.601c20.099 9.6 39 17.701 56.999 25.201 42.9 18.6 77.701 33.3 102.9 62.699-2.699-17.699-7.2-35.1-13.799-51.599-22.8-15.3-49.2-26.701-77.401-38.701-17.401-7.2-36-15-55.499-24.599-7.5-3.602-16.501-.601-20.101 6.899s-.599 16.499 6.901 20.1zm-56.4-30.899c5.699 4.276 16.264 2.892 20.7-4.501 4.499-7.2 2.399-16.199-4.801-20.7-37.2-23.399-58.2-38.101-72.9-70.499-10.201.899-20.4 2.398-30.601 4.799 18.6 45.6 45.3 64.2 87.602 90.901zm39.898 249.898c-6.599-5.1-15.899-3.9-20.999 2.701-5.101 6.3-3.9 15.899 2.399 21 37.2 29.099 51.901 43.499 66 108 9.3-5.1 18.3-10.8 27.001-17.1-14.401-60.301-32.1-81.6-74.401-114.601zm-145.499-43.499c24.6 10.199 50.099 20.999 77.401 35.4 6.733 3.845 16.452 1.454 20.4-6 3.9-7.2 1.199-16.5-6.301-20.4-28.5-15.3-55.8-26.7-80.1-36.601-77.1-31.8-129.6-53.399-150.601-165.899-8.699 12.299-16.199 24.899-22.2 38.399 28.801 100.501 88.501 125.101 161.401 155.101z" fill="url(#SVGID_2_)"/></g></g></g></svg>