<?xml version="1.0"?>
<svg xmlns="http://www.w3.org/2000/svg" id="Layer_1" enable-background="new 0 0 512 512" height="512px" viewBox="0 0 512 512" width="512px"><g><path d="m437.02 74.98c-48.353-48.351-112.64-74.98-181.02-74.98s-132.667 26.629-181.02 74.98c-48.351 48.353-74.98 112.64-74.98 181.02s26.629 132.667 74.98 181.02c48.353 48.351 112.64 74.98 181.02 74.98s132.667-26.629 181.02-74.98c48.351-48.353 74.98-112.64 74.98-181.02s-26.629-132.667-74.98-181.02zm-14.143 347.897c-92.016 92.017-241.738 92.017-333.754 0-92.017-92.016-92.017-241.738 0-333.754 28.935-28.936 63.579-48.765 100.338-59.502-9.553 27.267-13.824 55.734-12.664 84.851.214 5.383 4.646 9.602 9.985 9.602.134 0 .269-.002.405-.008 5.519-.22 9.814-4.872 9.594-10.39-1.232-30.945 4.243-61.091 16.245-89.636 14.196-2.609 28.584-3.93 42.974-3.93 60.435 0 120.869 23.004 166.877 69.013 56.966 56.965 78.649 136.044 65.082 209.858-17.077 7.176-34.949 12.05-53.252 14.516-2.339-6.86-6.232-13.303-11.694-18.765-19.105-19.104-50.191-19.104-69.297 0-3.47 3.47-6.301 7.339-8.511 11.456-18.084-5.521-35.241-13.412-51.175-23.539 4.466-13.843 1.225-29.653-9.747-40.625-11.88-11.879-29.429-14.699-44.013-8.483-8.849-11.481-16.512-23.868-22.81-36.93-2.398-4.974-8.375-7.064-13.351-4.665-4.975 2.398-7.063 8.375-4.665 13.351 6.899 14.31 15.294 27.88 24.988 40.458-12.214 15.68-11.128 38.43 3.28 52.839 7.798 7.798 18.042 11.697 28.285 11.697 9.821 0 19.636-3.594 27.302-10.763 17.515 11.132 36.377 19.798 56.26 25.848-1.126 13.847 3.584 28.084 14.155 38.655 9.552 9.552 22.1 14.328 34.648 14.328s25.096-4.776 34.648-14.328c8.546-8.546 13.257-19.489 14.157-30.685 15.408-2.062 30.537-5.681 45.207-10.803-10.733 36.757-30.562 71.399-59.497 100.334zm-55.018-114.002c5.653-5.654 13.08-8.48 20.506-8.48s14.853 2.827 20.506 8.48c11.307 11.307 11.307 29.705 0 41.012s-29.705 11.307-41.012 0-11.307-29.705 0-41.012zm-126.001-52.709c3.899-3.899 9.021-5.849 14.142-5.849s10.243 1.949 14.142 5.849c7.798 7.798 7.798 20.487 0 28.285-7.798 7.799-20.486 7.798-28.284 0-7.798-7.799-7.798-20.487 0-28.285z" fill="#BDBDBD"/><path d="m145.121 184.954c-19.105-19.105-50.191-19.105-69.297 0-19.105 19.105-19.105 50.191 0 69.297 9.553 9.552 22.101 14.329 34.648 14.329s25.096-4.776 34.648-14.329c19.105-19.106 19.105-50.192.001-69.297zm-14.143 55.154c-11.307 11.308-29.705 11.308-41.012 0-11.307-11.307-11.307-29.705 0-41.012 5.653-5.654 13.08-8.48 20.506-8.48s14.853 2.827 20.506 8.48c11.307 11.307 11.307 29.705 0 41.012z" fill="#BDBDBD"/><path d="m218.395 340.771c-16.294 0-31.612 6.345-43.134 17.867s-17.867 26.84-17.867 43.134 6.345 31.612 17.867 43.133c11.521 11.522 26.839 17.867 43.133 17.867 5.523 0 10-4.477 10-10s-4.477-10-10-10c-10.951 0-21.247-4.265-28.991-12.009s-12.008-18.04-12.008-28.991c0-10.952 4.265-21.248 12.009-28.992s18.04-12.008 28.991-12.008 21.248 4.265 28.991 12.008c15.986 15.986 15.986 41.997 0 57.982-3.905 3.905-3.905 10.237 0 14.143s10.237 3.905 14.143 0c23.783-23.784 23.783-62.483 0-86.267-11.522-11.522-26.841-17.867-43.134-17.867z" fill="#BDBDBD"/><path d="m128.142 318.409c-12.671-12.67-33.289-12.671-45.962 0-12.671 12.672-12.671 33.291 0 45.962 6.336 6.335 14.658 9.503 22.981 9.503 8.322 0 16.645-3.168 22.981-9.503 12.671-12.671 12.671-33.29 0-45.962zm-14.143 31.82c-4.873 4.874-12.804 4.874-17.677 0-4.874-4.874-4.874-12.804 0-17.677 2.438-2.437 5.638-3.655 8.839-3.655s6.402 1.219 8.838 3.655c4.874 4.873 4.874 12.803 0 17.677z" fill="#BDBDBD"/><path d="m254.192 129.065c8.681 0 16.842-3.38 22.98-9.519 6.139-6.138 9.52-14.3 9.52-22.981 0-8.682-3.381-16.843-9.519-22.981-6.139-6.138-14.3-9.519-22.981-9.519-8.682 0-16.843 3.38-22.98 9.519-6.139 6.138-9.52 14.3-9.52 22.981s3.381 16.843 9.519 22.98c6.138 6.14 14.299 9.52 22.981 9.52zm-8.838-41.338c2.36-2.361 5.5-3.661 8.838-3.661s6.478 1.3 8.838 3.661c2.361 2.361 3.661 5.5 3.661 8.839 0 3.338-1.3 6.478-3.662 8.838-2.361 2.361-5.5 3.661-8.838 3.661s-6.478-1.3-8.839-3.661-3.661-5.5-3.661-8.838c.001-3.339 1.301-6.478 3.663-8.839z" fill="#BDBDBD"/><path d="m335.405 398.433h-.007c-5.523 0-9.997 4.477-9.997 10s4.481 10 10.004 10 10-4.477 10-10-4.477-10-10-10z" fill="#BDBDBD"/><path d="m173.405 303.683c5.523 0 10-4.477 10-10s-4.477-10-10-10h-.007c-5.523 0-9.997 4.477-9.997 10s4.481 10 10.004 10z" fill="#BDBDBD"/><path d="m134.406 122.182c5.523 0 10-4.477 10-10s-4.477-10-10-10h-.007c-5.523 0-9.997 4.477-9.997 10s4.481 10 10.004 10z" fill="#BDBDBD"/><path d="m283.402 178.932c0 5.523 4.481 10 10.004 10s10-4.477 10-10-4.477-10-10-10h-.007c-5.524 0-9.997 4.477-9.997 10z" fill="#BDBDBD"/><path d="m420.906 229.432c5.523 0 10-4.477 10-10s-4.477-10-10-10h-.007c-5.523 0-9.997 4.477-9.997 10s4.481 10 10.004 10z" fill="#BDBDBD"/><path d="m375.156 132.682c5.523 0 10-4.477 10-10s-4.477-10-10-10h-.007c-5.523 0-9.997 4.477-9.997 10s4.481 10 10.004 10z" fill="#BDBDBD"/><path d="m193.164 168.622c5.523 0 10-4.477 10-10s-4.477-10-10-10h-.007c-5.523 0-9.996 4.477-9.996 10s4.48 10 10.003 10z" fill="#BDBDBD"/></g></svg>
