<svg id="Capa_1" enable-background="new 0 0 512.003 512.003" height="512" viewBox="0 0 512.003 512.003" width="512" xmlns="http://www.w3.org/2000/svg" xmlns:xlink="http://www.w3.org/1999/xlink"><linearGradient id="SVGID_1_" gradientUnits="userSpaceOnUse" x1="258.303" x2="258.303" y1="512.002" y2="4.303"><stop offset="0" stop-color="#a93aff"/><stop offset="1" stop-color="#ff81ff"/></linearGradient><linearGradient id="SVGID_2_" gradientUnits="userSpaceOnUse" x1="244.252" x2="244.252" y1="488.201" y2=".002"><stop offset="0" stop-color="#ffbef9"/><stop offset="1" stop-color="#fff1ff"/></linearGradient><g id="Neptune_1_"><g><g><path d="m512.003 256.302c0-123.952-91.161-229.793-209.5-250.799l5.607 47.853-91.707-49.053c-22.8 3.6-44.7 9.899-65.099 19.499l33.994 88.894-86.795-56.794c-16.439 12.646-32.461 29.12-42.601 42.299l57.079 87.204-88.879-33.803c-9.899 21-16.199 42.6-19.499 65.1l64.274 93.225-63.375-7.425c22.829 124.804 132.52 209.5 250.501 209.5 35.999 0 71.699-8.5 105-23.8l-28.356-45.472 81.156 13.672c15.125-11.056 30.838-27.01 42.599-42.299l-12.25-80.703 44.352 27.602c14.699-32.399 23.499-67.801 23.499-104.7z" fill="url(#SVGID_1_)"/></g></g><g><g><path d="m451.304 324.102c-21.901-21.899-32.1-54-28.5-90 6-62.999-16.201-124.501-60.601-168.9l-59.7-59.699h-.3c-15-2.701-30.601-5.501-46.199-5.501-13.2 0-26.4 2.201-39.6 4.301l103.5 103.499c32.699 32.701 47.098 77.4 43.2 120.3-5.101 51.301 9.598 102.001 45.899 138.3l47.401 47.701c12.9-16.5 23.699-34.2 32.1-53.101zm-174.002-46.799c35.101-35.1 35.101-92.101 0-127.2l-125.998-126.301c-18.9 8.101-36.601 18.9-52.8 32.1l136.5 136.5c11.7 11.7 11.7 30.9 0 42.599-11.7 11.701-30.901 11.701-42.599 0l-136.503-136.8c-13.2 16.501-24 34.201-31.8 53.101v.3l126 125.7c35.1 35.1 92.101 35.1 127.2.001zm-49.198 85.799c-42.902 3.9-87.601-10.499-120.3-43.2l-103.2-103.2c-2.361 14.014-4.706 28.174-4.6 42.3.109 14.602 2.754 29.167 5.499 43.5l59.7 59.702c44.401 44.399 105.901 66.599 168.9 60.599 36-3.6 68.101 6.601 90 28.5l36.901 36.899c18.6-7.798 36.299-18.6 52.8-31.8l-47.401-47.399c-36.3-36.301-87.001-51-138.299-45.901z" fill="url(#SVGID_2_)"/></g></g></g></svg>