<?xml version="1.0"?>
<svg xmlns="http://www.w3.org/2000/svg" id="Capa_1" enable-background="new 0 0 511.897 511.897" height="512px" viewBox="0 0 511.897 511.897" width="512px"><g><path d="m240.949 483.397h30v28.5h-30z" fill="#BDBDBD"/><path d="m257.337 1.307-1.388-1.307-1.388 1.307c-32.298 30.411-57.059 65.959-74.041 104.253h150.859c-16.983-38.294-41.744-73.842-74.042-104.253z" fill="#BDBDBD"/><path d="m86.262 291.933v132.321l78.183-24.568c-21.766-41.077-35.128-86.186-39.372-132.511z" fill="#BDBDBD"/><path d="m283.168 230.328c0-15.009-12.21-27.22-27.219-27.22s-27.219 12.211-27.219 27.22 12.21 27.219 27.219 27.219 27.219-12.211 27.219-27.219z" fill="#BDBDBD"/><path d="m307.986 407.897c53.482-83.507 64.11-183.336 34.938-272.337h-173.95c-29.172 89.001-18.544 188.83 34.938 272.337h37.037v44h30v-44zm-109.257-177.569c0-31.551 25.668-57.22 57.219-57.22s57.219 25.668 57.219 57.22c0 31.551-25.668 57.219-57.219 57.219s-57.219-25.669-57.219-57.219z" fill="#BDBDBD"/><path d="m188.282 437.897h30v40.333h-30z" fill="#BDBDBD"/><path d="m386.825 267.175c-4.244 46.325-17.607 91.434-39.372 132.511l78.183 24.568v-132.321z" fill="#BDBDBD"/><path d="m293.615 437.897h30v40.333h-30z" fill="#BDBDBD"/></g></svg>
